HIERARCHY
ROOT Hips
{
  OFFSET -0.165833 95.6504 -0.872502
  CHANNELS 6 Xposition Yposition Zposition Zrotation Xrotation Yrotation
  JOINT LeftUpLeg
  {
    OFFSET 8.64259 1.95398 -2.38835
    CHANNELS 3 Zrotation Xrotation Yrotation
    JOINT LeftLeg
    {
      OFFSET 43.7702 0 0
      CHANNELS 3 Zrotation Xrotation Yrotation
      JOINT LeftFoot
      {
        OFFSET 40.6238 0 0
        CHANNELS 3 Zrotation Xrotation Yrotation
        JOINT LeftToeBase
        {
          OFFSET 12.7242 0 0
          CHANNELS 3 Zrotation Xrotation Yrotation
          End Site
          {
            OFFSET 0 0 0
          }
        }
      }
    }
  }
  JOINT RightUpLeg
  {
    OFFSET -8.2249 1.95398 -2.59336
    CHANNELS 3 Zrotation Xrotation Yrotation
    JOINT RightLeg
    {
      OFFSET 43.5653 0 0
      CHANNELS 3 Zrotation Xrotation Yrotation
      JOINT RightFoot
      {
        OFFSET 40.6238 0 0
        CHANNELS 3 Zrotation Xrotation Yrotation
        JOINT RightToeBase
        {
          OFFSET 12.7242 0 0
          CHANNELS 3 Zrotation Xrotation Yrotation
          End Site
          {
            OFFSET 0 0 0
          }
        }
      }
    }
  }
  JOINT Spine
  {
    OFFSET 0.165834 0.87714 6.61349
    CHANNELS 3 Zrotation Xrotation Yrotation
    JOINT Spine1
    {
      OFFSET 7.38963 1.71661e-005 0
      CHANNELS 3 Zrotation Xrotation Yrotation
      JOINT Spine2
      {
        OFFSET 11.9445 1.14441e-005 0
        CHANNELS 3 Zrotation Xrotation Yrotation
        JOINT Spine3
        {
          OFFSET 14.7254 4.19617e-005 0
          CHANNELS 3 Zrotation Xrotation Yrotation
          JOINT Spine4
          {
            OFFSET 10.9679 0 0
            CHANNELS 3 Zrotation Xrotation Yrotation
            JOINT RightShoulder
            {
              OFFSET 2.46616 -1.6653 3.69651
              CHANNELS 3 Zrotation Xrotation Yrotation
              JOINT RightArm
              {
                OFFSET 13.0012 0 0
                CHANNELS 3 Zrotation Xrotation Yrotation
                JOINT RightForeArm
                {
                  OFFSET 28.7848 1.52588e-005 0
                  CHANNELS 3 Zrotation Xrotation Yrotation
                  JOINT RightHand
                  {
                    OFFSET 26.5688 1.52588e-005 0
                    CHANNELS 3 Zrotation Xrotation Yrotation
                    End Site
                    {
                      OFFSET 0 0 0
                    }
                  }
                }
              }
            }
            JOINT LeftShoulder
            {
              OFFSET 2.38034 -1.29275 -3.7523
              CHANNELS 3 Zrotation Xrotation Yrotation
              JOINT LeftArm
              {
                OFFSET 16.3182 6.10352e-005 0
                CHANNELS 3 Zrotation Xrotation Yrotation
                JOINT LeftForeArm
                {
                  OFFSET 27.0901 0 0
                  CHANNELS 3 Zrotation Xrotation Yrotation
                  JOINT LeftHand
                  {
                    OFFSET 24.5451 1.52588e-005 0
                    CHANNELS 3 Zrotation Xrotation Yrotation
                    End Site
                    {
                      OFFSET 0 0 0
                    }
                  }
                }
              }
            }
            JOINT Neck
            {
              OFFSET 5.0226 -0.0266342 0
              CHANNELS 3 Zrotation Xrotation Yrotation
              JOINT Head
              {
                OFFSET 6.69364 2.86102e-005 0
                CHANNELS 3 Zrotation Xrotation Yrotation
                End Site
                {
                  OFFSET 0 0 0
                }
              }
            }
          }
        }
      }
    }
  }
}
MOTION
Frames: 18
Frame Time: 0.041666666666666664
0.0000 0.0000 0.0000 -97.9496 -45.5921 -99.9979 -175.3348 30.3542 95.7046 -112.2045 12.8511 6.4782 62.1488 6.5826 10.5890 17.9818 3.7346 -4.8432 186.5188 14.1475 106.1283 -51.6524 -12.0632 2.7896 95.0154 -21.6677 -7.1453 3.9599 5.1106 4.9463 0.3451 7.9256 -90.8284 10.7061 1.7974 -1.7564 -0.5429 1.1930 -1.8294 -23.1617 1.5345 -2.2092 -3.1850 1.4280 -0.7410 87.0026 -30.4850 -119.3293 24.7535 2.4823 -31.9934 -35.6744 2.3050 -96.5161 -36.5287 2.6458 -15.9485 -89.5791 -55.8599 79.8350 -16.6874 16.4708 1.4553 64.6353 -10.0330 -89.4476 14.6302 -0.2327 -11.9215 33.3589 5.9089 14.5286 -15.1474 0.6008 -4.1080 
0.0000 0.0000 0.0000 -88.3119 -44.2362 -95.6928 -169.3867 38.4171 92.2412 -112.8884 11.2098 6.3411 67.4848 8.2327 9.4368 16.7929 2.0879 -5.3785 186.6661 10.2451 98.2501 -51.7787 -12.9538 1.4168 99.3961 -23.4135 -4.2695 3.9113 4.0643 5.4661 0.8254 8.1667 -90.6336 10.4250 2.6273 -1.3036 -0.8779 2.1182 -1.2860 -23.6249 2.4120 -1.2272 -3.3128 2.1417 0.1372 85.7311 -29.5381 -115.2516 25.0728 9.6668 -37.6007 -34.0141 0.5746 -99.8198 -36.6907 2.7320 -16.8773 -89.4773 -54.9025 81.3834 -18.9442 13.6395 12.3655 65.9717 -14.4472 -92.4116 17.1881 -0.0807 -10.6977 34.2228 4.5539 13.9032 -13.9930 -0.7946 -4.4233 
0.0000 0.0000 0.0000 -83.4000 -43.3280 -94.7954 -165.6436 45.9169 79.3950 -108.7781 7.1901 6.3456 69.6822 9.2831 9.1300 20.9365 2.2663 -5.0990 171.7115 6.1995 93.7949 -48.9515 -13.7075 0.3429 101.0601 -24.2358 -3.3542 8.0126 2.1108 6.8115 1.4004 8.1942 -90.1340 10.4239 3.6934 -0.5130 -0.9298 2.9412 -0.3360 -23.6676 3.0896 -0.0326 -3.3029 2.7963 0.9060 86.3717 -28.3487 -116.1885 30.3657 14.8995 -45.8635 -33.6724 -1.3610 -102.8724 -37.4534 2.0767 -15.0525 -87.2582 -54.1988 83.8282 -19.0910 12.0552 21.2452 64.1114 -19.7237 -93.9892 17.7626 -0.0982 -8.9705 34.7920 2.2549 12.4040 -13.8350 -2.5630 -4.5913 
0.0000 0.0000 0.0000 -85.0111 -42.1596 -95.1004 -171.9351 51.6579 83.9309 -102.0725 4.0247 5.3459 74.4476 9.7788 6.9517 24.1931 2.0650 -4.1193 171.3932 -0.6121 89.5550 -41.5202 -14.1667 -0.7806 97.2176 -21.5720 -2.1334 15.0253 0.0056 7.7897 1.8748 8.1607 -89.2577 10.8370 5.0609 0.3167 -1.0516 4.3406 0.4521 -23.5904 4.2471 1.0244 -3.4110 3.9518 1.9721 87.5988 -25.8989 -116.6119 35.2724 17.6611 -49.8850 -34.5857 -3.2018 -106.5246 -41.6583 1.2685 -13.1318 -86.7947 -53.0001 84.8114 -17.5111 10.7635 28.5134 63.8610 -22.7989 -95.1604 16.7984 -0.8624 -12.1126 35.2804 -1.0907 10.7560 -14.7996 -4.9362 -4.7922 
0.0000 0.0000 0.0000 -79.8998 -40.9369 -93.5301 -169.1134 51.4135 84.2875 -89.6461 1.4780 3.8878 77.8247 11.1984 2.4107 25.1456 0.5397 -4.8644 172.2312 -7.6939 88.6455 -33.9854 -17.5764 -2.9287 84.9916 -16.1134 -5.6480 23.6238 -2.0046 8.5870 2.1886 7.9794 -88.5444 11.0681 6.3729 1.3756 -1.0162 5.6709 1.5229 -23.4090 5.0731 2.4454 -3.5616 4.8315 3.3316 88.9999 -23.6774 -107.9744 38.3878 19.0794 -49.4359 -35.7126 -3.9054 -109.8604 -44.7518 0.1650 -9.9349 -86.9582 -48.9312 84.6098 -19.0313 8.3139 35.3444 61.2413 -23.4977 -98.4781 17.0826 -1.0052 -11.6008 34.9444 -4.8814 8.0650 -15.4821 -7.4507 -5.0949 
0.0000 0.0000 0.0000 -82.6784 -41.1783 -98.5865 -171.4100 49.2716 83.7757 -74.8282 0.9078 1.2055 79.5282 10.9695 -0.8798 23.4744 0.5206 -3.1354 185.2310 -14.5512 90.0431 -27.7234 -18.4341 -5.4958 70.4984 -6.5580 -5.9070 29.1141 -3.3233 11.1312 2.5453 7.9457 -87.8533 11.0292 7.4701 2.2221 -1.6076 6.4985 2.2392 -23.6083 5.7612 3.6183 -3.5117 5.5768 4.5857 89.8832 -21.5650 -109.2336 39.7150 20.1196 -45.3333 -33.1659 -2.4460 -112.1105 -44.3231 0.6501 -11.6979 -86.9183 -45.7018 83.7052 -21.7153 7.8548 42.5139 63.0004 -27.3758 -97.1693 23.9591 -4.3225 -21.9746 36.0113 -8.2825 5.7475 -18.1845 -9.8289 -6.4285 
0.0000 0.0000 0.0000 -76.2027 -42.3583 -94.2343 -174.5232 45.7896 82.7494 -59.5868 6.9652 -0.7141 77.0373 9.5927 1.0436 25.9153 0.1034 -2.6288 168.7666 -17.7019 85.9799 -26.8082 -18.3774 -7.6054 61.6541 -0.0757 -2.3545 18.8754 -0.1543 7.5418 2.5849 7.6111 -87.2993 10.9998 8.2758 3.0649 -1.7688 7.2295 2.9381 -23.7477 5.9066 4.6813 -3.3452 5.8984 5.4008 91.1529 -19.0682 -108.4268 38.6504 21.5353 -40.4880 -32.0012 -4.8408 -113.4972 -43.4452 0.7588 -13.2599 -86.8761 -41.5830 82.6314 -22.8270 5.4964 45.3706 58.1480 -25.1774 -101.0315 29.6367 -5.1191 -21.9891 37.2525 -11.4653 3.3359 -21.2744 -12.0054 -7.7312 
0.0000 0.0000 0.0000 -72.2280 -43.9105 -90.9800 -165.4244 42.3417 82.4177 -43.9930 13.8989 -2.4136 73.6974 8.0667 -0.0603 29.2053 -0.7440 -0.5225 153.7220 -18.9987 87.0158 -29.9773 -17.3708 -8.7878 61.6459 0.1345 -1.4579 9.5382 2.5270 3.5331 2.6106 7.6207 -86.7578 11.0692 8.7019 3.8388 -1.6243 7.8488 3.6355 -23.6959 6.3033 5.5846 -3.6475 6.0233 6.0653 91.0657 -18.3074 -107.3197 39.7796 19.6721 -37.0111 -32.3143 -3.9898 -112.8673 -43.4327 1.0526 -13.7813 -87.9291 -39.2327 81.2534 -21.4043 3.8748 47.0867 62.1411 -25.2587 -100.8071 20.3729 -2.2508 -12.9999 35.9950 -14.2176 0.9997 -21.3664 -13.4851 -7.2464 
0.0000 0.0000 0.0000 -79.8057 -46.1457 -97.1618 -177.3902 38.5011 83.0142 -29.3930 17.2249 -3.6697 70.1710 4.9527 -0.4452 32.7564 1.0143 0.4014 175.2105 -21.0200 81.8165 -33.8386 -14.8936 -7.4410 66.2788 -2.4550 -2.4647 12.3085 0.5645 5.0402 2.4219 7.5269 -86.9941 11.1410 8.3381 4.0419 -1.5015 7.6037 3.6927 -23.4915 5.9084 5.6161 -3.6793 5.7081 6.0803 92.1120 -17.5855 -106.2073 37.4406 13.7214 -34.2571 -37.4459 0.3089 -109.8884 -44.1842 0.5138 -10.8031 -88.9107 -41.6721 79.6152 -16.3199 4.3336 46.6226 58.4236 -26.7025 -101.4163 19.8595 -1.7082 -14.0270 34.0001 -14.4546 0.3642 -19.6166 -13.7878 -6.6222 
0.0000 0.0000 0.0000 -82.2537 -47.2884 -100.6517 -182.6204 35.7855 82.1127 -21.3707 20.0624 -5.3377 75.1484 5.1484 4.4364 30.7071 0.0676 -0.3181 184.4504 -20.4634 86.7364 -39.1358 -12.1518 -5.8070 65.8920 -2.5730 -2.3677 13.9216 0.5501 5.0965 2.0705 7.5146 -87.1934 11.4853 7.5646 3.7425 -0.9895 7.1099 3.4372 -23.1816 5.5175 4.9372 -3.3530 5.1023 5.6140 91.7258 -18.5348 -105.9659 31.5790 10.5883 -25.6390 -36.9636 -0.2770 -107.2348 -43.7598 0.7747 -12.0040 -89.7094 -44.8874 78.0698 -12.5285 5.2125 43.9705 56.5490 -26.3728 -101.9504 20.2886 -1.6475 -13.6580 30.6616 -14.8847 -0.4916 -17.1856 -14.2430 -5.1639 
0.0000 0.0000 0.0000 -81.6612 -48.4501 -100.5534 -170.8069 32.9013 82.0175 -20.6855 18.0500 -5.9526 76.8755 6.2471 1.7205 25.2355 -2.0592 -0.9102 181.1930 -19.3082 92.9004 -48.1122 -10.4274 -3.5079 63.2015 -1.9374 -1.5233 16.9678 0.9380 6.9394 2.0529 7.4315 -87.2896 11.4430 6.8778 3.2541 -0.7997 6.3706 2.7442 -23.0947 5.1090 4.4691 -3.5284 4.7675 5.0983 90.3706 -20.9837 -108.2239 33.4578 5.5826 -24.0285 -34.6325 -0.4624 -101.5472 -44.6869 0.4520 -11.3695 -89.5753 -48.0354 78.5141 -11.6087 7.3655 39.4410 55.3877 -24.8444 -100.7290 21.6073 -1.7058 -14.2129 27.2659 -15.1951 -1.5752 -15.8311 -14.2176 -3.7459 
0.0000 0.0000 0.0000 -90.0513 -50.1183 -107.2104 -177.2898 29.3131 82.0244 -24.7429 14.1730 -5.6574 75.2205 7.1566 -0.5901 24.6825 -2.9491 0.6959 178.8534 -17.4609 100.0316 -61.2669 -10.9428 -2.0252 62.9311 -1.9273 -0.9808 15.2150 0.0061 7.3065 1.7998 7.5169 -87.4670 11.1505 6.0038 2.9006 -0.9620 5.9030 2.6637 -23.3409 4.2803 4.0292 -3.9780 4.1919 4.7280 88.2482 -23.9014 -110.5029 26.8044 3.4507 -13.9694 -33.7094 -4.8189 -98.3905 -44.8411 2.0639 -13.0042 -89.8946 -50.9592 78.6463 -11.7606 8.7200 33.1854 57.1082 -23.1493 -99.1532 19.1907 -1.4109 -15.3893 24.2368 -15.0309 -2.2808 -13.8762 -13.5683 -3.7240 
0.0000 0.0000 0.0000 -89.1819 -52.3232 -100.4657 -181.7464 26.9491 81.8400 -30.9074 15.3592 -4.1749 67.8982 3.3978 -0.4121 19.3827 -2.3336 -1.8072 174.4210 -14.5290 91.2496 -74.0082 -8.9557 -0.8631 63.7117 -2.8314 -2.7966 10.4537 0.1100 8.5428 1.5038 7.5757 -87.7623 10.5614 5.0929 2.7322 -1.2822 4.8149 2.4994 -23.6431 3.1608 3.5289 -4.3107 3.1554 4.4498 86.9655 -27.2994 -109.8441 26.2033 1.2820 -11.8793 -21.1292 -7.2426 -85.4097 -37.8463 3.6875 -20.1905 -90.8025 -54.0860 78.0569 -12.7999 11.2546 23.8113 56.6690 -20.0726 -96.9379 15.3851 -0.8638 -14.7185 19.8348 -13.9811 -3.8311 -11.6256 -12.1105 -2.4857 
0.0000 0.0000 0.0000 -96.4834 -52.9479 -106.4039 -188.0098 25.6036 82.2335 -37.2512 16.2548 -2.8874 61.7027 1.1872 1.9058 18.6657 -0.0641 -5.1329 161.4200 -10.3492 89.7353 -84.9093 -2.9478 -1.7314 65.9003 -4.8362 -3.8355 10.8268 0.5802 7.0874 1.1420 7.7965 -87.8192 10.1861 3.8819 2.9438 -1.5542 3.7809 2.5290 -23.9998 2.2726 3.5364 -4.7278 2.0101 4.4985 86.6421 -29.8756 -110.1996 39.7311 0.1839 -10.3471 -18.3734 -9.0695 -77.5145 -35.1708 3.6713 -21.7265 -91.6254 -56.4125 75.8258 -10.4680 15.4768 10.0357 63.6228 -19.9601 -100.9344 15.7603 -0.5817 -13.1021 17.8393 -12.4040 -6.1733 -9.2253 -10.3319 -0.5163 
0.0000 0.0000 0.0000 -106.2967 -54.3258 -118.7442 -160.9817 25.3818 80.7135 -46.0675 16.5692 -3.3366 71.7770 6.4562 2.4195 22.5731 -0.7027 -1.2293 169.6151 -1.4560 88.9037 -95.9949 3.5791 -1.7752 66.0088 -5.1343 -4.7170 10.5079 1.3477 6.4286 0.5975 8.1348 -87.8407 9.5997 2.8080 3.2922 -1.8876 2.5064 3.2685 -24.2844 1.0803 3.5911 -4.9345 0.6952 4.4478 85.6417 -32.6492 -111.9655 36.6575 2.5932 -1.5783 -15.5757 -7.5939 -75.9447 -35.1165 3.5757 -20.9070 -91.6741 -58.1901 74.4385 -5.8889 17.5006 -8.6511 64.1739 -18.4320 -96.1716 12.2838 -0.4781 -12.3479 19.3953 -11.7994 -7.6281 -8.2870 -9.1224 1.1369 
0.0000 0.0000 0.0000 -94.2583 -53.3927 -108.7705 -184.0791 20.1004 78.5610 -49.0966 16.1168 -3.5932 78.1009 12.2906 0.8976 17.0974 -1.7441 1.8210 175.4219 7.5771 88.7759 -102.8091 4.2931 -2.0317 65.2492 -6.2544 -5.5832 9.5354 2.3176 4.8874 -0.0833 8.2808 -87.3151 8.8330 2.1525 4.4896 -2.3297 1.9206 4.3783 -24.9279 -0.0461 4.0628 -5.2613 -0.1738 4.8185 85.2623 -33.4362 -111.3498 40.8118 6.5331 4.2394 -16.7181 -9.5545 -78.5420 -32.7057 2.5195 -17.6386 -93.2383 -57.0535 73.0220 -0.2221 18.4635 -27.2691 67.8920 -18.3511 -96.3569 14.0912 -0.7201 -10.2671 23.1540 -11.0217 -8.5531 -9.0251 -7.7963 1.7559 
0.0000 0.0000 0.0000 -104.1223 -52.4564 -118.1438 -187.2531 15.5174 81.1585 -51.5477 16.8071 -3.5848 80.4382 13.1179 1.5613 25.9809 1.1399 -2.8454 182.8206 15.5719 82.8423 -109.0804 -1.9409 -1.7681 63.3647 -6.5044 -10.3379 8.4703 1.5175 6.7347 -0.5958 8.6553 -87.7205 8.3963 1.3111 4.1007 -2.9334 1.1694 4.1629 -25.3670 -0.4314 4.0076 -5.7919 -0.6594 4.2885 87.3188 -32.5100 -108.0863 42.1236 3.6086 10.8284 -7.0241 -7.3587 -76.7495 -33.3327 3.5992 -20.5257 -94.6455 -52.8309 70.9721 -0.9314 16.9077 -43.1249 62.3150 -17.5876 -96.7677 17.2596 -1.4815 -12.9414 25.8543 -9.4235 -7.8987 -10.3686 -6.2779 1.7924 
0.0000 0.0000 0.0000 -91.1856 -51.4686 -110.6535 -155.1800 11.8435 86.3309 -50.4605 16.4280 -3.4667 81.4723 12.1116 1.2303 34.3984 2.8543 -3.2936 181.8997 24.2295 89.9309 -111.7392 -5.1199 -2.5175 65.3602 -6.8776 -9.6461 7.9938 1.1281 8.0438 -1.0142 8.4824 -88.1345 8.9151 0.4340 3.9178 -2.4905 0.0233 3.7498 -25.1527 -1.0509 3.0513 -5.2140 -0.8854 3.5173 88.0412 -31.7358 -108.1856 46.8853 -1.3809 14.2522 -6.5776 -5.4427 -78.7399 -30.1308 3.6032 -21.2309 -94.3897 -51.4064 72.0711 0.8210 11.4565 -48.7631 54.8914 -20.1762 -93.5510 15.9696 -1.5632 -10.3375 23.5267 -5.8997 -5.8110 -10.1132 -3.8669 0.1564 
